<svg fill="#fff" id="Layer_2" data-name="Layer 2" xmlns="http://www.w3.org/2000/svg" viewBox="0 0 428.38 132">
  <defs>
    <style>
      .cls-1 {
        fill: #fff;
        stroke-width: 0px;
      }
    </style>
  </defs>
  <g id="Layer_1-2" data-name="Layer 1">
    <g>
      <path class="cls-1" d="m428.38,90h-31.57v-57h31.57v12c-3.46.2-6.91.44-10.37.57-2.43.09-4.86.02-7.42.02v9.81h16.36v12.19c-2.99,0-5.62-.04-8.25,0-2.73.05-5.47.17-8.49.28,0,2.08-.04,3.55.01,5.02.06,1.42.22,2.84.35,4.51,2.97,0,5.45-.07,7.93.02,3.29.12,6.58.37,9.88.57v12Z"/>
      <path class="cls-1" d="m187.38,132c-1.48-.68-2.95-1.37-4.43-2.04-8.83-4.02-12.51-13.46-8.99-23.06,3.26-8.88,12.32-13.52,21.27-10.88,9.26,2.73,14.53,11.97,12.35,21.46-1.54,6.7-5.4,11.25-11.95,13.48-.77.26-1.49.69-2.24,1.03h-6Zm12.46-18.3c-.44-1.81-.67-3.46-1.24-4.98-1.41-3.75-4.08-5.98-8.22-6.07-3.76-.08-6.64,2.01-8.28,5.99-1.39,3.38-1.33,6.79.17,10.12,1.56,3.46,4.17,5.5,8.08,5.58,3.99.08,6.54-2.1,8.06-5.54.71-1.63.97-3.45,1.42-5.12Z"/>
      <path class="cls-1" d="m273.38,132c-1.63-.74-3.28-1.45-4.9-2.23-8.28-4.01-10.35-12.44-9.8-18.17.75-7.92,6.08-13.86,13.84-15.81,7.05-1.77,14.75,1.04,18.89,7.08,1.09,1.59,1.75,3.49,2.83,5.7h-8.46c-5.75-6.55-11.07-7.74-15.44-3.4-4.5,4.47-4.2,12.78.61,17.06,4.48,3.97,9.4,2.7,14.8-4.04,1.6,0,3.42-.02,5.24,0,.81.01,1.62.1,2.68.18-1.18,5.74-4.54,9.31-9.39,11.71-1.3.64-2.6,1.29-3.9,1.94h-7Z"/>
      <path class="cls-1" d="m234.38,0v25.55h-6.86v-10.67c-.34-.1-.68-.2-1.02-.29-1.84,2.68-3.67,5.35-5.84,8.5-1.96-2.68-3.73-5.1-5.49-7.51-.26.09-.52.19-.78.28v9.62h-6.7c-.45-8.38-.51-16.92-.31-25.48C209.71,0,212.05,0,214.38,0c1.97,3.38,3.95,6.76,6.31,10.8C223.23,6.7,225.31,3.35,227.38,0c2.33,0,4.67,0,7,0Z"/>
      <path class="cls-1" d="m150.38,0v25.56h-6.33c-2.69-3.45-5.58-7.17-8.48-10.88-.34.13-.69.25-1.03.38v10.44h-6.96c-.67-4.03-.23-8.31-.29-12.54-.06-4.32.05-8.64.08-12.96h7c4.03,6.39,5.21,7.77,8.18,9.44.08-.9.24-1.71.21-2.51-.09-2.31-.25-4.62-.39-6.93,2.67,0,5.33,0,8,0Z"/>
      <path class="cls-1" d="m288.38,0v25.58c-2.14.1-3.73.18-5.67.27-3.02-3.64-6.05-7.3-9.33-11.26-1.52,1.79-1,3.65-1.03,5.32-.11,6.07-.07,6.08-6.5,5.65-1.23-4.11-.42-8.41-.55-12.63-.13-4.3.03-8.62.07-12.93h7c4.03,6.39,5.21,7.77,8.46,9.6-.16-3.4-.31-6.5-.46-9.6,2.67,0,5.33,0,8,0Z"/>
      <path class="cls-1" d="m252.38,0c.9.41,1.79.85,2.7,1.24,4.9,2.07,7.82,5.78,8.02,11.05.2,5.23-2.26,9.29-6.98,11.76-4.86,2.54-9.68,2.28-14.12-.9-7.65-5.48-6.84-16.48,1.48-21.12C244.76,1.31,246.08.67,247.38,0c1.67,0,3.33,0,5,0Zm3.14,12.86c-.09-3.15-2.68-5.79-5.71-5.83-3.23-.04-5.92,2.85-5.79,6.22.12,3.15,2.75,5.57,5.95,5.49,3.17-.08,5.63-2.69,5.54-5.88Z"/>
      <path class="cls-1" d="m218.38,132c-1.1-.68-2.24-1.31-3.31-2.03-3.26-2.21-5.07-5.12-4.42-9.51h8.1c.29.68.42,1.62.95,2.11.76.7,1.97,1.62,2.71,1.43.84-.22,1.72-1.5,1.96-2.47.35-1.42.17-2.97.17-4.47,0-6.79,0-13.57,0-20.62h8.37c0,8.68.18,17.12-.07,25.56-.13,4.35-2.7,7.38-6.84,8.97-.59.22-1.09.68-1.63,1.04h-6Z"/>
      <path class="cls-1" d="m115.38,0c.35,1.41.54,2.89,1.09,4.23,2.39,5.84,4.9,11.64,7.34,17.46.5,1.19.88,2.44,1.41,3.94h-7.13c-.61-.7-1.46-1.66-2.35-2.67h-7.72c-.61.76-1.32,1.64-2.08,2.58h-6.79c2.08-5.37,4.05-10.27,5.87-15.23C106.25,6.91,107.26,3.44,108.38,0c2.33,0,4.67,0,7,0Zm-1.66,16.46c-.63-1.83-1.12-3.26-1.61-4.69-.3-.01-.59-.03-.89-.04-.41,1.44-.82,2.87-1.35,4.73h3.84Z"/>
      <path class="cls-1" d="m341.38,0c.35,1.41.54,2.89,1.09,4.23,2.39,5.84,4.9,11.64,7.34,17.46.5,1.19.88,2.44,1.41,3.94h-7.13c-.62-.7-1.46-1.66-2.35-2.67h-7.72c-.61.76-1.32,1.64-2.08,2.58h-6.79c2.08-5.37,4.05-10.27,5.87-15.23C332.25,6.91,333.26,3.44,334.38,0c2.33,0,4.67,0,7,0Zm-5.66,16.76c1.83-.22,2.68-.32,4.02-.48-.67-1.76-1.19-3.13-1.71-4.49-.28.02-.55.03-.83.05-.4,1.32-.79,2.64-1.48,4.93Z"/>
      <path class="cls-1" d="m187.38,0c.35,1.41.54,2.89,1.09,4.23,2.39,5.84,4.9,11.64,7.34,17.46.5,1.19.88,2.44,1.41,3.94h-7.13c-.62-.7-1.46-1.66-2.35-2.67h-7.72c-.61.76-1.32,1.64-2.08,2.58h-6.79c2.08-5.37,4.05-10.27,5.87-15.23C178.25,6.91,179.26,3.44,180.38,0c2.33,0,4.67,0,7,0Zm-1.64,16.38c-.66-1.8-1.16-3.2-1.67-4.59-.31,0-.61,0-.92,0-.37,1.44-.74,2.87-1.25,4.83,1.57-.1,2.44-.15,3.83-.24Z"/>
      <path class="cls-1" d="m92.38,0c2.08.9,4.16,1.81,6.65,2.88-1.05,1.85-1.91,3.36-2.79,4.91-3.08-.35-5.91-2.2-9,0,1.32,1.93,3.28,1.76,4.9,2.17,4.64,1.19,6.98,3.54,7.02,7.19.04,3.52-2.5,6.59-6.46,7.92-5.05,1.7-9.33-.21-13.95-2.54,1.36-1.8,2.44-3.23,3.62-4.78,2.97.35,5.82,2.91,9.08.49-.95-2.03-2.77-1.88-4.27-2.24-5.25-1.27-7.3-2.99-7.69-6.56-.42-3.82,1.44-6.39,6.15-8.51.6-.27,1.16-.63,1.74-.94,1.67,0,3.33,0,5,0Z"/>
      <path class="cls-1" d="m318.38,0c1.94,1.16,3.88,2.32,6.1,3.65-1.19,1.78-2.17,3.26-3.34,5.01-3.61-1.41-7.37-3.2-10.11,1.19-1.38,2.21-1.12,5.79.57,7.46,2.92,2.87,6.03,2.01,9.46.05,1.06,1.37,2.14,2.78,3.2,4.15-4.64,5.25-12.09,5.66-17.3,1.11-5.23-4.57-5.97-12.35-1.23-17.32C307.84,3.1,310.81,1.74,313.38,0c1.67,0,3.33,0,5,0Z"/>
      <path class="cls-1" d="m173.38,0c-.44,2.1-.87,4.2-1.35,6.52-1.81.19-3.56.37-5.69.59v18.35h-7.68V7.13c-2.32-.16-4.09-.28-6.28-.43V0C159.38,0,166.38,0,173.38,0Z"/>
      <path class="cls-1" d="m300.38,0c-.21,8.44-.42,16.89-.64,25.56h-7.36V0C295.05,0,297.71,0,300.38,0Z"/>
      <path class="cls-1" d="m116.36,81.76v-48.05c1.44-.21,2.54-.53,3.63-.5,7.81.22,15.67.07,23.43.89,9.1.96,14.46,7.13,15.67,16.71,1.05,8.33-3.33,15.81-11.24,19.2-.74.32-1.45.68-2.7,1.27,5.01,6.18,9.78,12.06,14.9,18.38h-15.93c-4.26-5.6-8.65-11.37-13.04-17.13-.27.11-.54.22-.82.32v16.66h-26.72c-.99-2.68-1.96-5.3-2.99-8.1h-19.85c-1.06,2.64-2.1,5.23-3.26,8.1h-14.88c7.48-18.69,14.91-37.26,22.43-56.03h11.3c6.42,16.09,12.86,32.26,19.31,48.43.25-.05.5-.09.75-.14Zm14.15-19.59c2.15,0,3.94.02,5.73,0,.83-.01,1.67-.01,2.48-.16,4.43-.85,6.9-3.92,6.83-8.43-.06-4.2-2.5-7.1-6.95-7.68-2.56-.33-5.2-.06-8.09-.06v16.34Zm-39.28-10.68c-3.25,5.83-4.8,11.95-6.51,18.33h12.09c-1.96-6.42-3.77-12.38-5.59-18.33Z"/>
      <path class="cls-1" d="m303.93,90.51h-53.24c-1.38-3.36-1.86-28.66-.75-39.07,3.41-.19,6.9-.39,10.38-.58-2.99-2.97-6.45-1.77-9.68-1.98-3.26-.21-6.55-.05-9.97-.49,5.34-5.23,11.79-8.67,17.83-12.67,6-3.97,12.08-7.81,18.36-11.86,12.25,7.93,24.53,15.57,36.44,23.78-.1.35-.2.71-.3,1.06-3.39.04-6.79-.03-10.17.17-3.13.18-6.42-.77-10.33,1.12,4.15,2.11,7.9.51,11.43,1.57v38.97Zm-15.38-25.2c.55-7.94-5.95-12.33-11.77-12.39-6.78-.08-11.99,6.82-11.68,12.15.44,7.63,4.49,12.12,11.93,12.1,7.24-.02,11.55-4.45,11.52-11.86Z"/>
      <path class="cls-1" d="m50.53,69.08c2.52-11.81,5.03-23.62,7.59-35.63h14.1c-4.97,18.8-9.89,37.37-14.85,56.12h-12.34c-3.19-11.83-5.33-23.87-9.43-35.5-2.76,11.78-5.52,23.57-8.32,35.51h-12.78C9.72,71.11,4.92,52.51,0,33.48h14.14c2.46,11.7,4.97,23.61,7.48,35.52.31.03.63.06.94.09,1.36-5.94,2.71-11.88,4.07-17.81,1.34-5.83,2.7-11.65,4.13-17.77h10.75c2.65,11.78,5.31,23.59,7.97,35.4.35.06.7.12,1.05.18Z"/>
      <path class="cls-1" d="m244.95,89.58h-13.57c-.07-7.55-.14-14.93-.21-22.51h-19.29c-.94,7.42.08,14.73-.66,22.36h-13.4v-55.98h13.59c.05,6.83.11,13.55.16,20.6h19.28c1.02-6.71-.06-13.51.69-20.53h13.15c1.07,2.02.6,4.41.37,6.61-.13,1.24-1.35,2.51-2.36,3.49-1.39,1.36-3.03,2.45-4.53,3.64.87,3.95,3.87,3.93,6.78,4.14v38.19Z"/>
      <path class="cls-1" d="m336.55,33.41h13.56c.14,1.48.35,2.76.35,4.04.03,10.32.02,20.64,0,30.96,0,1.5-.07,3-.2,4.49-.65,7.69-4.6,13.14-11.68,16-8.08,3.25-15.97,2.56-23.3-2.36-3.46-2.33-5.68-5.65-6.63-9.66-1.94-8.19-.9-16.48-1.09-25.18,1.9-.24,3.43-.15,4.71-.68,1.27-.53,2.29-1.67,3.44-2.56-1.76-3.78-5.23-4.97-8-7.27v-7.63h13.75c0,1.9,0,3.68,0,5.46,0,8.99-.05,17.98.03,26.96.02,2.31.23,4.67.76,6.91.92,3.92,3.26,5.55,7.2,5.47,3.94-.08,5.97-1.76,6.75-5.95.33-1.78.31-3.64.31-5.47.03-10.98.01-21.96.01-33.54Z"/>
      <path class="cls-1" d="m353.98,71.45h13.1c.47,1.25.91,2.66,1.52,3.97,1.08,2.29,2.86,3.65,5.49,3.59,2.37-.06,4.55-1.72,5.2-4,.73-2.57-.17-4.69-2.32-6.07-1.94-1.25-4.09-2.18-6.18-3.19-2.99-1.45-6.18-2.55-8.97-4.31-9.38-5.91-9.77-17.93-.95-24.73,7.24-5.59,17.66-5.99,25.28-.96,4.86,3.21,6.81,7.86,6.9,13.81h-13.4c-.33-.67-.78-1.52-1.16-2.39-.98-2.25-2.66-3.35-5.12-3.16-2.2.17-4.2,1.87-4.62,3.96-.5,2.51.89,4.18,2.81,5.36,1.83,1.13,3.83,1.97,5.75,2.95,2.96,1.5,5.99,2.89,8.88,4.53,6.36,3.6,8.12,9.31,7.07,16.19-.98,6.44-4.86,10.49-10.84,12.48-5.85,1.95-11.79,1.89-17.64-.25-7.65-2.8-11.49-9.01-10.82-17.77Z"/>
      <path class="cls-1" d="m162.8,89.57v-55.6c3.34-.98,24.4-1.23,30.87-.3v11.85h-17.16v9.53h16.53v12.34h-16.36v9.55c5.3,1.24,10.99-.15,16.73.84.97,3.94.74,7.81.15,11.79h-30.75Z"/>
      <path class="cls-1" d="m153.25,130.59h-7.44v-33.98c5.32,0,10.46-.42,15.5.11,5.71.61,8.89,4.24,9.75,9.73.77,4.9-1.52,9.39-6.14,12-.56.32-1.16.59-2.15,1.1,2.85,3.66,5.56,7.14,8.6,11.05h-9.17c-2.47-3.23-5.06-6.61-7.64-9.99-.28.09-.56.19-.84.28-.15,3.04-.3,6.09-.47,9.7Zm.59-16.81c3.53.58,6.65,1.03,8.65-2.42,1.13-1.94.93-3.98-.41-5.63-2.22-2.71-5.13-2.33-8.24-1.7v9.74Z"/>
      <path class="cls-1" d="m116.55,96.36c6.13-.12,11.73-.76,17.3.47,5.85,1.29,8.59,4.88,8.62,11.05.02,6.16-2.65,9.84-8.49,11.18-2.87.66-5.86.82-9.21,1.26-.17,3.26-.34,6.52-.53,10.14h-7.51c-.06-3.53-.14-7.27-.17-11.01-.03-3.66,0-7.32,0-10.98v-12.11Zm8.33,15.68c1.51.14,2.64.31,3.78.34.82.02,1.67-.05,2.47-.24,2.37-.56,3.4-1.92,3.4-4.21,0-2.14-1.11-3.61-3.1-3.91-2.05-.31-4.18-.07-6.54-.07v8.1Z"/>
      <path class="cls-1" d="m254.94,103.36c-3.33.15-6.44.29-10.1.46-.08,1.71-.15,3.25-.24,5.22,3.66.24,6.89.45,10.35.67v6.89c-3.34.16-6.58.31-10.11.47v6.04c3.4.19,6.63.37,10.16.56v6.82h-17.75c-.86-3.55-1.11-26.14-.34-33.97h18.03v6.84Z"/>
      <path class="cls-1" d="m301.53,130.57v-26.62c-2.25-.24-4.01-.43-6.39-.68-.1-2.18-.19-4.36-.31-6.83h21.83v6.71c-2.03.26-3.8.49-6.15.8-.63,4.24-.23,8.67-.3,13.06-.07,4.44-.02,8.88-.02,13.56h-8.68Z"/>
    </g>
  </g>
</svg>