<?xml version="1.0" encoding="iso-8859-1"?>
<!-- Generator: Adobe Illustrator 30.4.0, SVG Export Plug-In . SVG Version: 9.03 Build 0)  -->
<svg version="1.1" id="Layer_1" xmlns="http://www.w3.org/2000/svg" xmlns:xlink="http://www.w3.org/1999/xlink" x="0px" y="0px"
	 width="450px" height="450px" viewBox="0 0 450 450" enable-background="new 0 0 450 450" xml:space="preserve">
<path fill="#FBFBFB" d="M285.986,60.209c-18.189-6.348-37.204-9.667-56.456-10.212C158.033,47.982,90.775,87.085,59.985,151.485
	c-25.346,53.01-20.87,115.604,11.511,164.623c19.048,28.831,46.123,51.501,77.982,65.507
	c79.529,34.958,174.516,10.146,224.751-60.684c40.381-56.935,41.537-132.258,2.973-190.355
	C355.544,97.936,323.377,73.262,285.986,60.209z M360.62,132.707c1.497,10.02,0.831,20.463-2.681,29.932
	c-0.424,1.151-2.081,2.147-2.978,2.208c-1.079,0.066-2.879-0.562-3.815-1.58c-10.675-11.671-22.219-22.131-34.837-31.688
	c-2.34-1.773-3.199-4.668-2.411-7.338c2.83-9.563,0.022-14.347,2.901-16.934c0.936-0.842,2.857-1.052,4.294-0.495
	c12.431,4.762,24.025,11.187,34.7,19.131C358.137,127.675,360.158,129.63,360.62,132.707z M268.903,94.435
	c11.952,1.145,23.463,3.11,34.92,6.617c7.52,2.301,8.979,13.499,6.271,19.973c-1.14,2.725-4.112,3.116-6.342,1.696
	c-13.499-8.616-27.372-16.009-42.132-22.269c-1.932-0.82-3.947-1.96-4.9-3.716c-0.578-1.068,1.217-2.406,2.224-2.395L268.903,94.435
	z M265.071,87.702c3.452-3.479,10.741-2.736,16.51-3.468c6.463-0.826,12.612,1.211,15.998,7.124
	c-0.072,1.619-1.723,2.918-3.595,2.604l-24.212-4.002C267.846,89.64,266.431,88.974,265.071,87.702z M302.165,126.762
	c2.643,1.789,2.747,5.395,0.771,7.57c-4.459,4.9-9.392,8.924-15.106,11.754c-2.582,1.283-5.489,0.253-7.102-2.059
	c-9.155-13.13-19.076-25.275-30.191-36.775c-1.162-1.206-2.565-3.353-1.718-4.757c0.947-1.563,3.512-1.118,5.241-0.473
	C271.044,108.391,287.213,116.643,302.165,126.762z M275.724,145.221c0.793,1.151,1.123,3.088,0.859,4.25
	c-0.242,1.046-1.371,2.637-2.962,3.232c-13.427,5.032-27.234,7.399-41.366,8.093c-2.681,0.132-5.648-2.268-5.648-5.098
	l-0.028-55.713c0-1.376,1.255-2.989,2.152-3.408c1.134-0.529,3.149-0.039,4.366,0.974
	C249.607,111.231,263.563,127.554,275.724,145.221z M232.332,164.973c15.404-0.859,30.29-3.727,44.807-8.963
	c2.654-0.958,5.621,0.16,7.151,2.549c10.57,16.51,18.993,34.154,26.387,52.448c1.046,2.582-0.006,5.527-2.604,7.063
	c-21.025,12.42-50.522,18.773-75.136,19.852c-3.27,0.143-6.37-1.833-6.37-5.258l-0.011-62.517
	C227.245,167.027,229.133,165.155,232.332,164.973z M288.969,156.76c-1.58-2.56-0.727-5.582,1.872-7.239
	c6.414-4.107,11.968-8.891,17.474-14.226c2.219-2.147,6.21-0.083,8.208,1.497c12.524,9.931,24.333,20.281,34.424,32.596
	c1.905,2.318,2.202,5.362,0.694,8.071c-7.267,13.058-17.809,23.926-30.295,32.536c-2.059,1.42-5.45,0.639-6.436-1.696
	C307.44,190.562,299.182,173.292,288.969,156.76z M326.119,89.051c7.058,3.27,12.409,8.99,18.255,13.89
	c3.799,3.188,11.533,10.565,10.295,13.4c-0.325,0.738-2.406,1.453-3.501,0.82c-12.051-6.97-23.986-12.866-36.957-17.501
	c-2.494-0.892-4.36-2.874-5.841-4.823l-3.826-5.026c-0.473-0.622-0.418-2.488-0.11-3.116
	C305.892,83.722,321.357,86.843,326.119,89.051z M282.435,66.358c6.16,2.153,11.963,4.454,17.842,7.217
	c1.63,0.765,3.463,2.153,4.575,3.771c2.13,3.099-9.601,4.008-15.349,1.448l-14.958-6.656c-1.052-0.468-2.164-1.877-2.23-2.791
	C272.074,66.105,277.937,64.789,282.435,66.358z M271.606,78.211c0.033,0.705-1.288,2.186-2.202,2.301l-25.049,3.276
	c-1.035,0.138-2.621-0.44-2.945-1.266c-1.244-3.171,11.28-8.5,16.637-10.009c4.228,0.523,8.153,1.486,11.93,3.226
	C270.72,76.537,271.573,77.506,271.606,78.211z M232.067,57.197c9.711,0.237,19.307,1.14,28.644,3.562
	c0.837,0.215,1.822,1.668,1.993,2.373c0.512,2.109-3.821,4.201-6.436,3.898l-25.021-2.896c-2.009-0.231-3.589-2.29-3.551-3.661
	C227.751,58.133,229.772,57.137,232.067,57.197z M222.604,231.4c0,1.872-0.93,3.953-1.69,4.894
	c-1.106,1.382-3.083,1.718-5.103,1.668c-25.803-0.677-51.391-6.502-74.326-18.107c-3.204-1.624-4.685-4.916-3.435-8.087
	c7.223-18.332,15.85-35.949,26.216-52.525c1.795-2.868,4.982-3.331,7.702-2.389c14.363,4.955,28.914,7.57,43.992,8.181
	c1.756,0.072,3.881,0.798,4.834,1.861c1.002,1.118,1.8,3.199,1.8,5.021L222.604,231.4z M157.736,150.61
	c2.279,1.376,3.265,4.404,1.833,6.804c-9.893,16.543-18.409,33.543-25.583,51.639c-1.074,1.173-2.059,2.197-2.83,2.676
	c-0.864,0.54-3.314,0.149-4.267-0.501c-11.946-8.153-22.423-18.288-30.081-30.51c-2.395-3.821-2.164-7.669,0.842-11.071
	c10.625-12.034,22.109-23.183,34.986-32.817c2.081-1.558,5.252-2.053,7.283,0C145.272,142.226,151.162,146.635,157.736,150.61z
	 M144.903,128.066c15.673-10.829,32.629-19.637,50.544-26.194c1.822-0.666,4.845-0.908,4.966,1.459
	c0.088,1.778-2.031,4.107-3.468,5.588c-10.724,11.088-20.045,22.863-29.007,35.613c-1.607,2.285-4.327,3.716-6.827,2.643
	c-6.386-2.742-11.913-6.942-16.664-12.089C142.822,133.329,142.591,129.668,144.903,128.066z M222.587,154.288
	c0,3.044-1.575,6.601-5.362,6.557c-14.297-0.154-28.181-2.714-41.542-7.151c-1.525-0.507-2.901-1.839-3.463-2.885
	c-0.749-1.393-0.468-3.204,0.517-4.668c12.09-18.002,26.326-34.287,42.809-48.314c1.514-1.288,3.413-2.015,4.812-1.057
	c1.42,0.974,2.219,2.659,2.219,4.657L222.587,154.288z M221.426,79.224c-0.485,0.853-2.692,1.475-3.865,1.007
	c-4.074-1.641-11.627-5.533-11.946-8.291c-0.413-3.523,13.064-5.252,15.668-1.475C222.67,72.485,222.708,76.945,221.426,79.224z
	 M189.391,60.451c8.908-1.96,17.776-3.011,26.91-3.27c2.417-0.066,4.388,0.732,5.158,3.16c-0.611,2.582-2.808,3.815-5.648,3.942
	c-8.005,0.352-15.492,1.272-23.232,2.334c-2.648,0.363-5.814-0.727-6.392-3.463C186.071,61.948,188.163,60.721,189.391,60.451z
	 M175.694,76.917c2.554-2.83,12.789-5.56,16.995-4.019c4.823,1.767,15.145,6.067,14.793,9.243c-0.094,0.848-1.47,1.839-2.885,1.663
	l-26.265-3.303c-0.628-0.077-1.762-0.82-2.257-1.123C175.567,79.075,175.259,77.402,175.694,76.917z M184.634,87.955
	c-1.283,1.162-2.995,1.822-4.79,2.142l-28.49,5.098c-0.666,0.121-2.202-0.198-2.78-0.413c-3.523-1.332,2.219-7.388,7.564-9.645
	c3.914-1.652,8.071-0.98,12.194-0.809C173.348,84.536,182.526,84.619,184.634,87.955z M145.696,75.337
	c7.405-4.107,15.167-7.421,23.425-9.497c2.351-0.595,5.582,0.38,6.325,2.532c0.617,1.789-1.453,3.193-2.89,3.738
	c-4.768,1.828-9.062,3.655-13.642,5.962c-4.3,2.169-9.777,2.94-14.27,1.162C143.103,78.629,144.518,75.992,145.696,75.337z
	 M185.686,94.204c1.998-0.132,5.103,0.127,6.337,1.371c0.407,2.279-2.257,3.843-4.195,4.668
	c-15.442,6.573-29.954,14.143-44.058,23.535c-1.184,0.787-2.94,1.096-3.903,0.914c-4.443-0.826-5.918-10.328-3.281-17.127
	c1.118-2.879,3.474-4.624,6.436-5.544C156.932,97.71,171.097,95.178,185.686,94.204z M92.526,115.641
	c8.588-9.854,18.052-19.202,29.337-26.128c5.076-3.116,11.44-2.901,17.11-3.936c1.107-0.204,2.56,0.936,3.061,1.641
	c0.562,0.793,0.231,2.367-0.424,3.226l-4.443,5.825c-1.795,2.351-3.738,4.514-6.854,5.692c-11.308,4.289-21.492,9.508-31.666,15.662
	c-1.806,1.09-4.223,2.775-6.16,2.356C90.676,119.583,91.469,116.852,92.526,115.641z M90.819,128.419
	c10.79-8.197,22.335-15.128,34.991-20.1c0.98-0.385,3.127-0.121,3.788,0.446c2.819,2.411,0.545,8.175,3.551,16.841
	c1.002,2.89-0.193,5.72-2.791,7.729c-12.249,9.475-23.287,19.94-33.89,31.495c-8.539,9.304-11.418-15.073-11.291-25.236
	C85.237,134.557,86.933,131.369,90.819,128.419z M53.246,237.951c-1.91-1.811-2.318-4.553-2.444-7.223
	c-1.299-27.135,4.393-54.122,16.604-78.395c1.822-3.617,4.635-6.094,7.283-8.957c0.996-1.074,2.676-1.921,4.008-1.47
	c1.046,0.352,2.334,2.026,2.455,3.419c0.694,8.219,2.241,15.943,5.235,23.606c1.393,3.567,1.035,6.876-1.283,10.003
	c-12.216,16.472-21.746,34.38-27.774,54.21C56.626,235.457,55.267,237.681,53.246,237.951z M109.989,346.019
	c-0.699,0.336-2.747,0.38-3.419-0.204c-21.581-18.828-37.766-42.853-47.207-69.927c-1.58-4.536-2.83-10.702-0.044-10.465
	c0.727,0.061,2.279,0.606,2.846,1.349c12.64,16.439,27.812,30.053,45.424,41.058c1.734,1.085,3.243,3.347,3.27,5.197l0.237,14.115
	l0.396,9.282l0.165,7.124C111.69,344.483,110.688,345.683,109.989,346.019z M110.198,301.646c-1.013,0.617-3.562,0.661-4.894-0.231
	c-18.101-12.056-35.338-28.313-45.985-47.158c-3.397-6.006,2.978-24.085,6.149-32.206c5.428-13.906,12.651-26.744,21.47-38.691
	c0.738-1.002,2.747-1.674,3.688-1.519c0.941,0.154,2.642,1.079,3.325,2.131c8.346,12.855,19.246,23.072,31.941,31.639
	c2.263,1.525,3.777,4.575,2.808,7.394c-8.373,24.366-14.016,49.31-16.516,75.02C112.048,299.499,111.084,301.112,110.198,301.646z
	 M220.985,388.491c-1.079,1.294-3.149,1.701-5.18,1.608c-34.05-1.552-67.125-12.739-94.718-32.657
	c-1.993-1.437-3.551-3.716-3.92-6.001c-1.751-10.867-2.274-21.614-1.767-32.574c0.055-1.189,1.299-2.593,2.015-3.188
	c0.743-0.617,2.901-0.76,3.931-0.253c30.664,15.073,61.328,21.581,95.329,22.737c3.793,0.127,5.885,2.835,5.885,6.656l0.028,38.707
	C222.582,385.403,221.833,387.467,220.985,388.491z M220.848,332.2c-1.354,1.47-3.215,1.839-5.456,1.773
	c-23.474-0.683-46.629-4.514-68.832-12.31c-9.574-3.364-18.707-7.047-27.344-12.194c-3.507-2.092-3.226-6.353-2.863-10.047
	c2.472-25.016,7.961-49.338,16.235-72.961c1.09-3.116,4.525-4.046,7.361-2.676c25.242,12.205,49.035,17.253,77.024,18.465
	c3.518,0.154,5.615,2.918,5.615,6.59l0.016,78.125C222.615,329.139,221.8,331.16,220.848,332.2z M229.799,69.193
	c3.975-1.53,14.688-0.028,13.086,3.408c-1.409,3.022-5.087,4.156-7.487,5.792c-2.191,1.459-4.333,2.565-7.008,1.464
	C225.461,77.286,225.703,70.768,229.799,69.193z M226.54,248.526c0-2.092,0.798-3.953,2.12-5.004
	c1.459-1.156,3.474-1.481,5.467-1.575c14.831-0.683,29.051-3.066,43.409-6.986c11.363-3.105,21.79-7.658,32.255-12.657
	c2.863-1.365,5.637,1.041,6.524,3.606c8.357,24.284,14.126,49.123,16.461,74.734c0.374,4.129-1.393,6.915-5.004,8.841
	c-29.189,15.574-62.094,23.37-95.477,24.41c-3.204,0.099-5.714-2.263-5.714-5.302L226.54,248.526z M333.793,329.778l-1.448,19.329
	c-0.308,4.107-2.081,6.843-5.461,9.199c-27.361,19.065-59.583,30.207-93.259,31.782c-3.545,0.165-6.975-1.305-6.981-4.977
	l-0.038-41.383c-0.006-3.898,3.589-5.676,7.047-5.803c32.839-1.222,64.29-8.539,93.666-23.441c2.235-1.134,5.213-0.655,5.88,1.899
	C334.332,320.76,334.134,325.253,333.793,329.778z M320.256,223.147c-1.442-4.112-0.352-7.102,3.182-9.524
	c12.282-8.417,22.544-18.888,30.334-31.506c0.771-1.25,2.659-2.175,3.799-2.075c1.04,0.088,2.824,1.046,3.705,2.241
	c12.172,16.422,21.872,34.711,27.124,54.628c1.074,4.074,2.571,8.583,1.371,12.541c-5.081,11.269-13.058,20.623-21.316,29.574
	l-3.788,3.782c-5.004,5.004-22.015,20.215-25.643,17.6c-0.749-0.54-2.064-1.817-2.197-3.066
	C334.206,271.984,328.723,247.277,320.256,223.147z M391.46,270.327c-8.841,28.924-25.665,54.755-48.149,74.882
	c-0.831,0.743-2.268,1.029-3.105,1.129c-0.76,0.088-2.609-0.666-2.604-1.767l0.066-10.487l0.341-22.192
	c0.05-3.05,2.714-5.186,5.103-6.749c17.22-11.269,31.908-25.198,43.712-41.944c0.517-0.738,1.987-1.404,2.676-1.569
	C391.626,261.122,393.217,264.563,391.46,270.327z M398.298,217.846l-0.016,9.816c-0.006,2.505-0.231,5.61-3.176,7.168
	c-1.013,0.54-3.155-1.079-3.573-2.411c-6.331-20.078-16.263-38.498-29.018-55.306c-2.059-2.714-2.89-5.808-1.795-9.073
	c2.945-8.797,4.619-17.512,4.933-26.822c0.033-0.914,1.338-2.23,2.048-2.62c3.055-1.685,11.407,8.561,13.857,13.466
	C391.829,172.615,397.489,194.911,398.298,217.846z"/>
</svg>
