<?xml version="1.0" encoding="iso-8859-1"?>
<!-- Generator: Adobe Illustrator 30.4.0, SVG Export Plug-In . SVG Version: 9.03 Build 0)  -->
<svg version="1.1" id="Layer_1" xmlns="http://www.w3.org/2000/svg" xmlns:xlink="http://www.w3.org/1999/xlink" x="0px" y="0px"
	 width="595.336px" height="228.999px" viewBox="0 0 595.336 228.999" enable-background="new 0 0 595.336 228.999"
	 xml:space="preserve">
<g>
	<g>
		<path fill="#0000FF" d="M52.131,107.548c-4.42-2.089-6.991-3.374-6.991-8.195c0-3.616,2.008-5.384,5.223-5.384
			c3.937,0,6.187,2.892,6.589,8.035h7.553c-0.322-11.409-6.187-18.159-14.141-18.159c-7.473,0-12.857,5.142-12.857,16.391
			c0,10.446,5.544,13.981,11.329,16.793c5.304,2.492,8.758,3.696,8.758,9.482c0,3.535-1.687,6.267-5.785,6.267
			c-4.821,0-7.794-3.455-7.874-10.125h-7.633c0.16,12.776,6.749,20.249,15.668,20.249c8.598,0,13.259-7.071,13.259-17.437
			C65.228,113.494,58.638,110.601,52.131,107.548z"/>
		<polygon fill="#0000FF" points="85.48,124.421 85.399,124.421 77.204,84.648 67.964,84.648 67.964,142.098 75.034,142.098 
			75.034,103.047 75.195,103.047 82.747,142.098 88.212,142.098 95.684,103.047 95.844,103.047 95.844,142.098 102.916,142.098 
			102.916,84.648 93.676,84.648 		"/>
		<path fill="#0000FF" d="M117.699,84.648l-13.017,57.45h7.955l2.492-12.695h12.775l2.41,12.695h8.115l-13.097-57.45L117.699,84.648
			L117.699,84.648z M116.895,119.761l4.58-23.702h0.08l4.5,23.702H116.895z"/>
		<polygon fill="#0000FF" points="148.108,84.648 140.635,84.648 140.635,142.098 164.177,142.098 164.177,131.813 148.108,131.813 
					"/>
		<polygon fill="#0000FF" points="174.237,84.648 166.764,84.648 166.764,142.098 190.307,142.098 190.307,131.813 174.237,131.813 
					"/>
		<polygon fill="#0000FF" points="236.885,84.648 231.824,125.947 231.742,125.947 225.716,84.648 218.485,84.648 212.458,125.947 
			212.378,125.947 207.316,84.648 199.844,84.648 208.522,142.098 216.075,142.098 222.101,102.405 222.181,102.405 
			228.127,142.098 235.68,142.098 244.357,84.648 		"/>
		<path fill="#0000FF" d="M330.671,115.502v-0.16c4.098-1.526,6.83-6.508,6.83-14.223c0-10.525-4.42-16.471-12.053-16.471h-15.587
			v57.45h7.473v-20.891h6.669c7.714,0,4.58,18.481,6.187,20.891h7.794v-0.724C336.055,140.41,339.108,117.993,330.671,115.502z
			 M323.922,110.922h-6.589V94.933h6.589c4.178,0,6.107,2.572,6.107,7.874C330.029,108.271,327.939,110.922,323.922,110.922z"/>
		<polygon fill="#0000FF" points="347.612,84.648 340.139,84.648 340.139,142.098 363.683,142.098 363.683,131.813 347.612,131.813 
					"/>
		<path fill="#0000FF" d="M380.952,84.648h-14.463v57.45h14.865c9.562,0,15.025-10.205,15.025-28.685
			C396.379,94.933,390.594,84.648,380.952,84.648z M380.229,131.813h-6.268v-36.88h6.268c6.347,0,8.517,7.794,8.517,18.481
			S386.576,131.813,380.229,131.813z"/>
		<polygon fill="#0000FF" points="428.964,124.421 428.884,124.421 420.688,84.648 411.447,84.648 411.447,142.098 418.519,142.098 
			418.519,103.047 418.68,103.047 426.232,142.098 431.696,142.098 439.169,103.047 439.329,103.047 439.329,142.098 446.4,142.098 
			446.4,84.648 437.161,84.648 		"/>
		<polygon fill="#0000FF" points="457.282,117.672 472.951,117.672 472.951,107.387 457.282,107.387 457.282,94.933 475.281,94.933 
			475.281,84.648 449.81,84.648 449.81,142.098 475.682,142.098 475.682,131.813 457.282,131.813 		"/>
		<path fill="#0000FF" d="M493.133,84.648H478.67v57.45h14.865c9.561,0,15.025-10.205,15.025-28.685
			C508.56,94.933,502.776,84.648,493.133,84.648z M492.41,131.813h-6.267v-36.88h6.267c6.348,0,8.518,7.794,8.518,18.481
			S498.758,131.813,492.41,131.813z"/>
		<rect x="511.508" y="84.648" fill="#0000FF" width="7.473" height="57.45"/>
		<path fill="#0000FF" d="M534.344,84.648l-13.016,57.45h7.955l2.49-12.695h12.775l2.41,12.695h8.116l-13.097-57.45L534.344,84.648
			L534.344,84.648z M533.542,119.761l4.579-23.702h0.081l4.499,23.702H533.542z"/>
	</g>
	<path fill="#0000FF" d="M303.003,96.05c-3.927-5.918-9.856-10.493-16.695-12.88c-3.263-1.139-6.738-1.767-10.331-1.869
		c-13.28-0.378-25.455,6.918-31.029,18.577c-4.612,9.647-3.805,21.199,2.108,30.148c3.481,5.27,8.417,9.416,14.273,11.99
		c4.437,1.95,9.109,2.885,13.726,2.885c10.667,0,21.022-4.994,27.404-13.992C309.889,120.431,310.103,106.747,303.003,96.05z
		 M281.705,84.083c-0.167,0.189-0.585,0.346-0.85,0.313l-4.545-0.526c-0.237-0.027-0.427-0.288-0.424-0.411
		c0.002-0.096,0.031-0.169,0.089-0.224c0.085-0.082,0.238-0.127,0.42-0.127c0.009,0,0.019,0,0.028,0c0,0,0,0,0,0
		c2.02,0.049,3.655,0.252,5.14,0.637c0.058,0.026,0.171,0.185,0.188,0.25C281.755,84.007,281.745,84.039,281.705,84.083z
		 M289.119,96.702c-0.845,0.928-1.718,1.608-2.67,2.079c-0.337,0.167-0.737,0.046-0.974-0.293c-1.702-2.441-3.504-4.636-5.509-6.71
		c-0.224-0.232-0.326-0.482-0.278-0.561c0.03-0.049,0.107-0.073,0.213-0.073c0.12,0,0.275,0.031,0.438,0.091
		c3.103,1.164,6.025,2.667,8.686,4.467c0.154,0.104,0.25,0.262,0.272,0.446C289.32,96.346,289.254,96.553,289.119,96.702z
		 M286.98,100.812c-0.21-0.34-0.103-0.74,0.262-0.973c1.05-0.672,2.041-1.479,3.213-2.615c0.263-0.253,0.852,0.043,1.162,0.288
		c1.968,1.561,4.246,3.481,6.215,5.884c0.284,0.346,0.322,0.79,0.101,1.186c-1.249,2.243-3.074,4.203-5.427,5.826
		c-0.125,0.086-0.307,0.109-0.478,0.059c-0.152-0.044-0.269-0.139-0.319-0.258C290.139,106.479,288.636,103.493,286.98,100.812z
		 M290.374,94.356c-0.061,0.144-0.157,0.238-0.289,0.279c-0.154,0.047-0.34,0.016-0.499-0.085c-2.521-1.61-5.037-2.939-7.69-4.064
		c-0.404-0.171-0.655-0.356-0.76-0.507c0.016-0.043,0.125-0.119,0.174-0.123l1.798,0.017c2.378,0.229,4.375,0.607,6.283,1.191
		c0.502,0.153,0.782,0.557,0.928,0.869C290.652,92.641,290.674,93.637,290.374,94.356z M276.091,85.225
		c0.541-0.209,1.815-0.059,2.101,0.246c0.044,0.047,0.038,0.07,0.023,0.102c-0.158,0.337-0.521,0.535-0.873,0.726
		c-0.148,0.081-0.613,0.37-0.703,0.417c-0.27,0.142-0.5,0.187-0.768,0.087c-0.208-0.204-0.31-0.585-0.246-0.941
		C275.681,85.549,275.851,85.317,276.091,85.225z M275.931,90.239c0.023-0.011,0.056-0.016,0.096-0.016
		c0.121,0,0.301,0.05,0.431,0.159c2.774,2.298,5.292,5.114,7.697,8.608c0,0,0,0,0,0c0.105,0.153,0.15,0.434,0.119,0.573
		c-0.028,0.12-0.18,0.334-0.382,0.41c-2.25,0.843-4.683,1.319-7.439,1.454c-0.183,0.009-0.391-0.078-0.547-0.226
		c-0.14-0.133-0.216-0.293-0.216-0.451l-0.005-10.12C275.684,90.484,275.851,90.275,275.931,90.239z M276.493,102.686
		c2.91-0.163,5.595-0.7,8.209-1.642c0.362-0.131,0.785,0.021,1.004,0.362c1.734,2.709,3.251,5.724,4.771,9.486
		c0.146,0.359-0.006,0.76-0.368,0.974c-3.411,2.015-8.47,3.35-13.532,3.571c-0.262,0.02-0.533-0.075-0.699-0.235
		c-0.131-0.124-0.197-0.282-0.197-0.469l-0.008-11.302C275.779,102.955,276.047,102.711,276.493,102.686z M293.169,111.479
		c2.303-1.578,4.181-3.528,5.582-5.798c0.093-0.151,0.352-0.272,0.456-0.259c0.115,0.01,0.373,0.143,0.494,0.307
		c2.361,3.186,4.005,6.495,4.886,9.837l0.065,0.242c0.177,0.651,0.361,1.326,0.198,1.87c-0.941,2.087-2.469,3.833-3.82,5.298
		l-0.688,0.687c-1.579,1.579-3.963,3.409-4.335,3.171c-0.134-0.096-0.285-0.271-0.296-0.379c-0.478-4.628-1.495-9.182-3.023-13.535
		v0C292.466,112.293,292.61,111.862,293.169,111.479z M299.061,101.926c-0.04,0.108-0.25,0.233-0.322,0.238
		c-0.127,0.018-0.38-0.083-0.493-0.207c-1.939-2.12-4.02-4.013-6.362-5.786c-0.329-0.25-0.466-0.667-0.349-1.063
		c0.266-0.897,0.268-1.577,0.271-2.073c0.002-0.49,0.011-0.732,0.184-0.888c0.055-0.049,0.171-0.082,0.297-0.082
		c0.076,0,0.156,0.012,0.227,0.04c2.212,0.848,4.313,2.005,6.244,3.443c0.417,0.308,0.709,0.607,0.778,1.065
		C299.816,98.494,299.652,100.332,299.061,101.926z M298.19,93.535c-2.42-1.4-4.566-2.416-6.754-3.198
		c-0.423-0.151-0.743-0.524-0.946-0.792l-0.688-0.901c-0.027-0.059-0.023-0.26-0.007-0.308c0.063-0.066,0.251-0.096,0.514-0.096
		c0.816,0,2.353,0.285,3.101,0.632c0.94,0.435,1.732,1.14,2.498,1.822c0.253,0.225,0.505,0.45,0.763,0.666
		c1.241,1.042,1.885,1.95,1.818,2.114C298.439,93.523,298.251,93.571,298.19,93.535z M287.987,89.224
		c-0.076,0.054-0.172,0.083-0.269,0.066l-4.398-0.727c-0.154-0.026-0.284-0.064-0.402-0.12c-0.027-0.013-0.012-0.078,0.022-0.094
		c0.413-0.189,0.881-0.162,1.474-0.229c0.297-0.033,0.763-0.067,1.041-0.102c0.63-0.078,1.734-0.059,2.456,0.869
		C287.967,88.957,288.151,89.107,287.987,89.224z M286.965,86.554l-2.716-1.209c-0.125-0.055-0.251-0.236-0.258-0.297
		c-0.004-0.048,0.004-0.121,0.11-0.203c0.15-0.115,0.433-0.192,0.753-0.192c0.206,0,0.429,0.032,0.642,0.106
		c1.194,0.417,2.216,0.831,3.217,1.301c0.272,0.128,0.546,0.348,0.713,0.576C289.15,86.831,287.758,86.908,286.965,86.554z
		 M283.187,86.896l-4.55,0.595c-0.112,0.013-0.296-0.058-0.323-0.105c-0.006-0.017,0.006-0.047,0.015-0.063
		c0.214-0.43,1.75-1.145,2.739-1.448c0.068-0.021,0.22-0.028,0.397,0.013c0.548,0.128,1.045,0.221,1.505,0.407
		c0.077,0.031,0.3,0.16,0.336,0.196c0.059,0.059,0.109,0.125,0.106,0.187C283.406,86.777,283.248,86.884,283.187,86.896z
		 M275.967,116.9c0.232-0.185,0.596-0.221,0.849-0.232c2.639-0.122,5.236-0.539,7.939-1.277c2.166-0.592,4.116-1.463,5.9-2.315
		c0.127-0.06,0.255-0.062,0.385-0.009c0.197,0.083,0.376,0.287,0.457,0.52c1.598,4.642,2.571,9.063,2.978,13.516
		c0.057,0.625-0.183,1.046-0.778,1.362c-5.036,2.688-10.995,4.211-17.233,4.405c-0.219,0-0.422-0.068-0.569-0.211
		c-0.136-0.132-0.211-0.31-0.211-0.502l-0.007-14.544C275.677,117.311,275.785,117.044,275.967,116.9z M276.728,134.102
		c6.209-0.23,11.969-1.673,17.118-4.285c0.102-0.052,0.214-0.078,0.32-0.078c0.075,0,0.146,0.014,0.208,0.041
		c0.097,0.044,0.158,0.117,0.185,0.223c0.199,0.767,0.159,1.582,0.101,2.352l-0.263,3.511c-0.048,0.642-0.313,1.086-0.886,1.484
		c-4.974,3.466-10.787,5.447-16.809,5.729c-0.357,0.026-0.664-0.068-0.839-0.235c-0.112-0.107-0.167-0.244-0.167-0.419l-0.007-7.517
		C275.688,134.341,276.248,134.119,276.728,134.102z M296.471,134.988c-0.073,0.065-0.241,0.122-0.422,0.143
		c-0.053,0-0.179-0.057-0.198-0.07l0.074-5.934c0.007-0.438,0.439-0.775,0.814-1.021c3.193-2.09,5.887-4.676,8.008-7.686
		c0.039-0.056,0.226-0.157,0.338-0.185c0.005-0.001,0.01-0.002,0.016-0.002c0.012,0,0.026,0.005,0.046,0.026
		c0.114,0.121,0.207,0.552-0.003,1.239C303.569,126.654,300.569,131.319,296.471,134.988z M300.325,104.49
		c-0.352-0.463-0.448-0.94-0.289-1.417c0.555-1.658,0.853-3.275,0.908-4.937c0.014-0.064,0.157-0.225,0.244-0.272
		c0.002-0.001,0.008-0.002,0.019-0.002c0.015,0,0.039,0.003,0.074,0.014c0.579,0.18,1.705,1.578,2.08,2.328
		c1.854,3.708,2.868,7.692,3.015,11.841l-0.003,1.779c-0.001,0.523-0.076,0.886-0.412,1.071c-0.077-0.001-0.288-0.16-0.326-0.282
		C304.517,111.064,302.731,107.659,300.325,104.49z M268.732,83.694c1.583-0.349,3.167-0.541,4.841-0.588c0.015,0,0.029,0,0.044,0
		c0.406,0,0.554,0.166,0.624,0.333c-0.121,0.353-0.483,0.444-0.774,0.457c-1.391,0.062-2.702,0.215-4.244,0.426
		c-0.379,0.051-0.812-0.096-0.879-0.386C268.366,83.874,268.566,83.731,268.732,83.694z M264.844,88.037l0.218,0.008
		c0.681,0.025,1.868,0.07,2.363,0.371c-0.146,0.079-0.322,0.137-0.524,0.173l-5.175,0.926c-0.061,0.01-0.391,0.03-0.407-0.078
		c-0.052-0.188,0.599-0.927,1.417-1.272c0.331-0.14,0.677-0.179,1.038-0.179c0.217,0,0.439,0.014,0.666,0.028
		C264.574,88.023,264.709,88.031,264.844,88.037z M260.542,96.301c0.012-0.112,0.057-0.266,0.198-0.364
		c2.837-1.96,5.908-3.551,9.125-4.729c0.207-0.075,0.447-0.09,0.535-0.032c0.011,0.008,0.029,0.019,0.032,0.074
		c0.005,0.11-0.087,0.342-0.56,0.829c-1.812,1.874-3.494,3.939-5.294,6.499c-0.213,0.304-0.584,0.544-0.937,0.395
		c-1.066-0.458-2.056-1.177-2.942-2.137C260.584,96.713,260.521,96.498,260.542,96.301z M268.91,89.956
		c-0.046,0.227-0.434,0.416-0.612,0.493c-2.967,1.262-5.598,2.668-8.043,4.297c-0.166,0.109-0.417,0.146-0.525,0.128
		c-0.176-0.033-0.302-0.198-0.376-0.332c-0.324-0.582-0.338-1.655-0.033-2.444c0.16-0.411,0.5-0.7,1.01-0.858
		c2.479-0.769,4.995-1.229,7.692-1.409C268.376,89.804,268.736,89.86,268.91,89.956z M252.202,103.451
		c2.1-2.378,4.167-4.317,6.317-5.926c0.16-0.12,0.365-0.198,0.561-0.198c0.16,0,0.314,0.051,0.435,0.174
		c0.925,0.933,1.999,1.764,3.284,2.541c0.317,0.191,0.428,0.592,0.248,0.894c-1.852,3.096-3.373,6.163-4.648,9.374
		c-0.115,0.125-0.31,0.333-0.424,0.406c-0.083,0.035-0.4-0.008-0.508-0.083c-2.28-1.556-4.095-3.396-5.393-5.468
		C251.692,104.555,251.735,103.978,252.202,103.451z M257.349,92.361c0.116,0,0.261,0.025,0.307,0.055
		c0.171,0.146,0.195,0.442,0.224,0.953c0.03,0.53,0.067,1.191,0.347,1.999c0.139,0.399-0.016,0.809-0.423,1.124
		c-2.113,1.634-4.137,3.515-6.188,5.75c-0.224,0.243-0.41,0.338-0.553,0.279c-0.682-0.27-1.085-2.958-1.063-4.691
		c0.01-0.821,0.269-1.335,0.926-1.834c2.099-1.595,4.159-2.778,6.296-3.617C257.251,92.366,257.297,92.361,257.349,92.361z
		 M274.187,101.264c-0.117,0.116-0.261,0.172-0.44,0.172c-0.003,0-0.006,0-0.01,0c-2.465-0.026-4.979-0.459-7.469-1.286
		c-0.207-0.069-0.41-0.26-0.488-0.406c-0.085-0.158-0.054-0.39,0.081-0.59c2.232-3.323,4.833-6.259,7.73-8.725
		c0.129-0.109,0.304-0.212,0.446-0.212c0.046,0,0.089,0.011,0.125,0.036c0.19,0.13,0.295,0.358,0.295,0.64l0.002,9.602
		C274.459,100.803,274.355,101.098,274.187,101.264z M274.325,86.76c-0.051,0.067-0.328,0.148-0.454,0.098
		c-1.056-0.425-2.012-1.053-2.046-1.344c-0.005-0.045,0.086-0.155,0.355-0.256c0.3-0.113,0.703-0.173,1.08-0.173
		c0.474,0,0.907,0.095,1.047,0.298C274.514,85.684,274.523,86.404,274.325,86.76z M271.767,87.363
		c-0.016,0.046-0.158,0.144-0.301,0.13l-4.772-0.601c-0.06-0.009-0.34-0.139-0.34-0.334c0.43-0.442,2.183-0.907,2.855-0.66
		C270.907,86.521,271.794,87.121,271.767,87.363z M265.531,85.334c-0.957,0.367-1.728,0.704-2.501,1.093
		c-0.786,0.396-1.701,0.474-2.352,0.248c-0.008-0.066,0.099-0.255,0.185-0.303c1.436-0.796,2.808-1.352,4.195-1.701
		c0.342-0.084,0.771,0.065,0.851,0.299C265.954,85.098,265.719,85.264,265.531,85.334z M259.801,88.746l-0.807,1.058
		c-0.347,0.454-0.658,0.771-1.135,0.952c-1.934,0.733-3.774,1.644-5.792,2.865l-0.11,0.067c-0.257,0.159-0.603,0.379-0.82,0.341
		c-0.023-0.05,0.024-0.262,0.136-0.39c0,0,0,0,0,0c1.896-2.175,3.521-3.623,5.271-4.697c0.62-0.38,1.315-0.46,2.055-0.566
		c0.16-0.023,0.452-0.065,0.77-0.098c0.065-0.007,0.233-0.004,0.28,0.019c0.076,0.038,0.182,0.099,0.222,0.157
		C259.892,88.495,259.873,88.652,259.801,88.746z M247.727,98.999c0.1-0.104,0.201-0.208,0.3-0.316
		c0.117-0.126,0.283-0.209,0.402-0.209c0.023,0,0.044,0.003,0.063,0.009c0.089,0.03,0.263,0.247,0.277,0.405
		c0.138,1.639,0.445,3.024,0.967,4.357c0.228,0.584,0.164,1.085-0.201,1.578c-2.357,3.178-4.02,6.424-5.083,9.923
		c-0.081,0.267-0.23,0.557-0.424,0.661c-0.208-0.273-0.255-0.658-0.273-1.039c-0.233-4.883,0.8-9.764,2.99-14.116
		C246.991,99.764,247.348,99.392,247.727,98.999z M245.03,120.931c0.103,0.009,0.3,0.095,0.341,0.148
		c2.279,2.964,5.077,5.493,8.316,7.518c0.255,0.159,0.473,0.497,0.477,0.736l0.043,2.57l0.072,1.682l0.03,1.296
		c-0.001,0.053-0.1,0.185-0.16,0.216c-0.071,0.027-0.295,0.028-0.35,0c-3.865-3.372-6.806-7.728-8.503-12.596
		C244.968,121.56,244.968,121.007,245.03,120.931z M254.166,127.047c-0.001,0.001-0.001,0.001-0.002,0.001
		c-0.103,0.064-0.462,0.07-0.62-0.036c-3.6-2.397-6.539-5.409-8.274-8.48c-0.396-0.7,0.027-2.808,1.132-5.636
		c0.951-2.437,2.252-4.782,3.868-6.971c0.068-0.093,0.305-0.179,0.408-0.179c0.008,0,0.015,0,0.021,0.001
		c0.11,0.018,0.354,0.152,0.435,0.277c1.443,2.223,3.364,4.126,5.872,5.817c0.306,0.207,0.554,0.646,0.414,1.055
		c-1.557,4.529-2.57,9.133-3.013,13.684C254.388,126.778,254.25,126.997,254.166,127.047z M255.488,130.401
		c0.005-0.101,0.15-0.293,0.274-0.396c0.039-0.026,0.152-0.046,0.26-0.046c0.072,0,0.143,0.009,0.186,0.03
		c5.312,2.611,10.847,3.932,17.418,4.155c0.747,0.025,0.827,0.68,0.827,0.96l0.005,7.029c-0.001,0.289-0.119,0.604-0.233,0.743
		c-0.119,0.142-0.391,0.222-0.738,0.202c-6.227-0.284-12.13-2.318-17.07-5.885c-0.318-0.229-0.558-0.593-0.612-0.928
		C255.499,134.356,255.395,132.437,255.488,130.401z M274.209,132.643c-0.167,0.181-0.406,0.258-0.8,0.241
		c-4.414-0.128-8.595-0.876-12.427-2.222c-1.495-0.525-3.249-1.196-4.922-2.194c-0.485-0.289-0.468-0.889-0.399-1.585
		c0.439-4.447,1.427-8.887,2.936-13.195c0.062-0.178,0.184-0.309,0.351-0.378c0.085-0.035,0.177-0.053,0.272-0.053
		c0.123,0,0.25,0.029,0.37,0.087c4.35,2.103,8.695,3.145,14.089,3.378c0.576,0.025,0.781,0.506,0.781,0.947l0.003,14.192
		C274.463,132.207,274.332,132.508,274.209,132.643z M273.484,115.444c-4.794-0.126-9.426-1.254-13.395-3.263
		c-0.478-0.242-0.681-0.706-0.504-1.154c1.356-3.441,2.951-6.638,4.741-9.5c0.182-0.291,0.458-0.396,0.728-0.396
		c0.131,0,0.261,0.025,0.378,0.065c2.593,0.894,5.23,1.385,8.062,1.5c0.271,0.011,0.586,0.125,0.702,0.255
		c0.127,0.142,0.263,0.451,0.263,0.745l0.002,10.805c0,0.274-0.146,0.602-0.252,0.732
		C274.091,115.382,273.849,115.467,273.484,115.444z"/>
	<polygon fill="#0000FF" points="548.568,87.128 552.494,87.128 552.494,98.449 555.301,98.449 555.301,87.128 559.197,87.128 
		559.197,84.658 548.568,84.658 	"/>
	<polygon fill="#0000FF" points="570.249,84.658 567.17,94.207 567.139,94.207 564.059,84.658 560.586,84.658 560.586,98.449 
		563.244,98.449 563.244,89.076 563.305,89.076 566.143,98.449 568.195,98.449 571.003,89.076 571.064,89.076 571.064,98.449 
		573.722,98.449 573.722,84.658 	"/>
</g>
</svg>
